<svg xmlns="http://www.w3.org/2000/svg" width="10.272" height="8.984" viewBox="0 0 10.272 8.984">
  <g id="Group_31" data-name="Group 31" transform="translate(-1614 -154.008)">
    <path id="Icon_ionic-ios-arrow-back" data-name="Icon ionic-ios-arrow-back" d="M14.838,10.684l-3.4-3.4a.642.642,0,0,1,.909-.907L16.2,10.23a.641.641,0,0,1,.019.885L12.351,14.99a.642.642,0,0,1-.909-.907Z" transform="translate(1602.75 147.814)" fill="#171c26"/>
    <path id="Icon_ionic-ios-arrow-back-2" data-name="Icon ionic-ios-arrow-back" d="M14.838,10.684l-3.4-3.4a.642.642,0,0,1,.909-.907L16.2,10.23a.641.641,0,0,1,.019.885L12.351,14.99a.642.642,0,0,1-.909-.907Z" transform="translate(1607.886 147.814)" fill="#171c26"/>
  </g>
</svg>
