<svg xmlns="http://www.w3.org/2000/svg" width="15.492" height="15.488" viewBox="0 0 15.492 15.488">
  <path id="Icon_awesome-instagram" data-name="Icon awesome-instagram" d="M7.742,6.011a3.971,3.971,0,1,0,3.971,3.971A3.965,3.965,0,0,0,7.742,6.011Zm0,6.553a2.582,2.582,0,1,1,2.582-2.582A2.586,2.586,0,0,1,7.742,12.564ZM12.8,5.848a.926.926,0,1,1-.926-.926A.924.924,0,0,1,12.8,5.848Zm2.63.94a4.584,4.584,0,0,0-1.251-3.245,4.614,4.614,0,0,0-3.245-1.251c-1.279-.073-5.112-.073-6.39,0A4.607,4.607,0,0,0,1.3,3.54,4.6,4.6,0,0,0,.049,6.785c-.073,1.279-.073,5.112,0,6.39A4.584,4.584,0,0,0,1.3,16.421a4.62,4.62,0,0,0,3.245,1.251c1.279.073,5.112.073,6.39,0a4.584,4.584,0,0,0,3.245-1.251,4.614,4.614,0,0,0,1.251-3.245c.073-1.279.073-5.108,0-6.387ZM13.78,14.547a2.614,2.614,0,0,1-1.472,1.472,17.069,17.069,0,0,1-4.565.311,17.2,17.2,0,0,1-4.565-.311A2.614,2.614,0,0,1,1.7,14.547a17.069,17.069,0,0,1-.311-4.565A17.2,17.2,0,0,1,1.7,5.416,2.614,2.614,0,0,1,3.177,3.944a17.069,17.069,0,0,1,4.565-.311,17.2,17.2,0,0,1,4.565.311A2.614,2.614,0,0,1,13.78,5.416a17.069,17.069,0,0,1,.311,4.565A17.06,17.06,0,0,1,13.78,14.547Z" transform="translate(0.005 -2.238)" fill="#1dbfcc"/>
</svg>
