<svg xmlns="http://www.w3.org/2000/svg" width="23.657" height="16.534" viewBox="0 0 23.657 16.534">
  <path id="Icon_simple-youtube" data-name="Icon simple-youtube" d="M23.171,7.977a2.965,2.965,0,0,0-2.059-2.059c-1.844-.494-9.265-.494-9.265-.494s-7.4-.01-9.265.494A2.965,2.965,0,0,0,.522,7.977,30.813,30.813,0,0,0,.007,13.7a30.812,30.812,0,0,0,.515,5.7,2.965,2.965,0,0,0,2.059,2.059c1.842.5,9.265.5,9.265.5s7.4,0,9.265-.5A2.965,2.965,0,0,0,23.171,19.4a30.812,30.812,0,0,0,.493-5.7,30.812,30.812,0,0,0-.493-5.724ZM9.478,17.242V10.149L15.655,13.7Z" transform="translate(-0.007 -5.424)" fill="#1dbfcc"/>
</svg>
