<svg xmlns="http://www.w3.org/2000/svg" width="14.287" height="16.328" viewBox="0 0 14.287 16.328">
  <path id="Icon_awesome-calendar-alt" data-name="Icon awesome-calendar-alt" d="M0,14.8a1.531,1.531,0,0,0,1.531,1.531H12.756A1.531,1.531,0,0,0,14.287,14.8V6.123H0Zm10.2-6.25a.384.384,0,0,1,.383-.383h1.276a.384.384,0,0,1,.383.383V9.822a.384.384,0,0,1-.383.383H10.587a.384.384,0,0,1-.383-.383Zm0,4.082a.384.384,0,0,1,.383-.383h1.276a.384.384,0,0,1,.383.383V13.9a.384.384,0,0,1-.383.383H10.587A.384.384,0,0,1,10.2,13.9ZM6.123,8.546a.384.384,0,0,1,.383-.383H7.781a.384.384,0,0,1,.383.383V9.822a.384.384,0,0,1-.383.383H6.506a.384.384,0,0,1-.383-.383Zm0,4.082a.384.384,0,0,1,.383-.383H7.781a.384.384,0,0,1,.383.383V13.9a.384.384,0,0,1-.383.383H6.506a.384.384,0,0,1-.383-.383ZM2.041,8.546a.384.384,0,0,1,.383-.383H3.7a.384.384,0,0,1,.383.383V9.822A.384.384,0,0,1,3.7,10.2H2.424a.384.384,0,0,1-.383-.383Zm0,4.082a.384.384,0,0,1,.383-.383H3.7a.384.384,0,0,1,.383.383V13.9a.384.384,0,0,1-.383.383H2.424a.384.384,0,0,1-.383-.383ZM12.756,2.041H11.225V.51a.512.512,0,0,0-.51-.51H9.695a.512.512,0,0,0-.51.51V2.041H5.1V.51A.512.512,0,0,0,4.592,0H3.572a.512.512,0,0,0-.51.51V2.041H1.531A1.531,1.531,0,0,0,0,3.572V5.1H14.287V3.572A1.531,1.531,0,0,0,12.756,2.041Z" fill="#1dbecb"/>
</svg>
