<svg xmlns="http://www.w3.org/2000/svg" width="25.468" height="25.468" viewBox="0 0 25.468 25.468">
  <path id="Icon_awesome-check-circle" data-name="Icon awesome-check-circle" d="M26.03,13.3A12.734,12.734,0,1,1,13.3.563,12.734,12.734,0,0,1,26.03,13.3ZM11.823,20.039l9.448-9.448a.822.822,0,0,0,0-1.162L20.109,8.267a.822.822,0,0,0-1.162,0l-7.7,7.7-3.6-3.6a.822.822,0,0,0-1.162,0L5.322,13.537a.822.822,0,0,0,0,1.162l5.34,5.34a.822.822,0,0,0,1.162,0Z" transform="translate(-0.563 -0.563)" fill="#4accd6"/>
</svg>
