<svg xmlns="http://www.w3.org/2000/svg" width="13.701" height="13.701" viewBox="0 0 13.701 13.701">
  <path id="Icon_awesome-phone-alt" data-name="Icon awesome-phone-alt" d="M13.31,9.682l-3-1.284a.642.642,0,0,0-.749.185L8.236,10.2A9.919,9.919,0,0,1,3.495,5.462L5.116,4.135A.641.641,0,0,0,5.3,3.386l-1.284-3A.647.647,0,0,0,3.281.017L.5.659a.642.642,0,0,0-.5.626A12.415,12.415,0,0,0,12.417,13.7a.642.642,0,0,0,.626-.5l.642-2.783a.65.65,0,0,0-.375-.739Z" transform="translate(0 0)" fill="#fff"/>
</svg>
